<svg id="Layer_1" data-name="Layer 1" xmlns="http://www.w3.org/2000/svg" viewBox="0 0 480.11 261.71"><defs><style>.cls-1{fill:#35ae73;}.cls-2{fill:#010101;}.cls-3{fill:#fff;}.cls-4{fill:#f9ea32;}</style></defs><rect class="cls-1" x="218.4" width="261.71" height="261.71"/><path class="cls-2" d="M10,295.16l16-16.29c7,8.28,15.32,12.75,23.43,12.75,12.48,0,18.89-5.16,18.89-21.06V218H20.33V196H96.07v76.71c0,22.77-11.84,41.62-45.79,41.62C36.67,314.33,20.68,309.29,10,295.16Z" transform="translate(-9.94 -119.15)"/><path class="cls-2" d="M121.31,297.55l15.94-18.05c9.27,7.19,20.72,12.12,32.61,12.12s17.23-4.32,17.23-10c0-8.37-7.29-10.39-18.91-15l-16-6.46c-13.6-4.89-26-14.76-26-31.66,0-19.23,18.3-34.6,45-34.6,14.76,0,29.67,5.23,40.75,15.2l-14,16.57c-8.64-5.87-16.29-9.07-28.28-9.07-9.14,0-15.35,3.58-15.35,10.37,0,7,8.22,9.54,20,13.72l15,6c16.07,5.7,26.22,15.18,26.22,31.57,0,19.31-17.11,36-47.49,36A73,73,0,0,1,121.31,297.55Z" transform="translate(-9.94 -119.15)"/><path class="cls-3" d="M249.5,281.12c0-35.87,50.43-38.22,50.43-60.9,0-5.49-2.07-9-7.77-9-4.72,0-8,4.87-8,12.95,0,18.45,24.94,43.51,48.45,57.77,8.31,5.79,16.1,9.65,22.95,11.2l-6.64,21.17c-10.85-2.55-21.65-7.77-32.92-15.71-29.21-19.31-54.77-52.77-54.77-74.33,0-16.46,11.74-30.37,30.38-30.37,18.42,0,29.53,10.34,29.53,26.25,0,28.92-45.4,36.69-45.4,59.42,0,8.76,6.74,14.74,16.66,14.74,7.15,0,14.29-4.67,20.82-11.79,7.78-9.05,13.69-21,17-36h25.23a132.49,132.49,0,0,1-23.18,47.77c-10.66,12-24.66,20-43.41,20C263.2,314.33,249.5,299,249.5,281.12Z" transform="translate(-9.94 -119.15)"/><path class="cls-3" d="M371.16,196.05h43.62c26,0,47.38,8.56,47.38,36.19,0,26.68-21.39,38.17-47.38,38.17H399v41.78H371.16Zm41.36,53.5c14.59,0,22.41-5.94,22.41-17.31s-7.82-15.32-22.41-15.32H399v32.63Zm16.38-2.91L468,312.19H437l-27.3-48.71Z" transform="translate(-9.94 -119.15)"/><rect class="cls-4" y="11.3" width="157.21" height="31.07"/></svg>